<?xml version="1.0" encoding="utf-8"?>
<!-- Generator: Adobe Illustrator 23.0.2, SVG Export Plug-In . SVG Version: 6.00 Build 0)  -->
<svg version="1.1" id="Layer_1" xmlns="http://www.w3.org/2000/svg" xmlns:xlink="http://www.w3.org/1999/xlink" x="0px" y="0px"
	 viewBox="0 0 512 512" style="enable-background:new 0 0 512 512;" xml:space="preserve">
<style type="text/css">
	.st0{fill:#FFFFFF;}
</style>
<g>
	<path class="st0" d="M355.5,337.2l-37.1-31.3c-0.1,0.2-0.3,0.3-0.4,0.5L195.9,203.3c0.1-0.2,0.3-0.3,0.4-0.5l-35.6-30
		c-0.2,0.1-0.4,0.2-0.6,0.3l-65.2-55l-28.7,34l56.9,48C106,214.3,87.2,232.1,65,255l-1,1l6.7,6.9C125.8,319.3,173.4,368,256,368
		c18.5,0,36.8-3.1,55-9.3l79.7,67.2l28.7-34L355,337.6C355.2,337.4,355.3,337.3,355.5,337.2z M256,336c-44.1,0-80-35.9-80-80
		c0-3.6,0.3-7.2,0.7-10.7l103.1,87C272.3,334.7,264.3,336,256,336z"/>
	<path class="st0" d="M447.1,256.2C401.8,204,339.2,144,256,144c-17.5,0-34.3,2.6-51,8l31.4,26.5c6.3-1.6,12.9-2.4,19.6-2.4
		c44.1,0,80,35.9,80,80c0,2.1-0.1,4.2-0.3,6.3l56.7,47.9c19-15.9,35.7-32.8,50.1-47.4l5.5-5.5L447.1,256.2z"/>
</g>
</svg>
